<svg xmlns="http://www.w3.org/2000/svg" viewBox="0 0 820 520" fill="none" role="img" aria-label="Halı Defterim app mockup placeholder">
  <defs>
    <linearGradient id="g" x1="0" y1="0" x2="1" y2="1">
      <stop offset="0" stop-color="#ffffff" stop-opacity="0.85" />
      <stop offset="1" stop-color="#ffffff" stop-opacity="0.35" />
    </linearGradient>
  </defs>
  <rect x="0" y="0" width="820" height="520" rx="24" fill="url(#g)" opacity="0.7"/>
  <rect x="56" y="70" width="320" height="380" rx="24" fill="#ffffff" opacity="0.9"/>
  <rect x="420" y="120" width="340" height="320" rx="18" fill="#ffffff" opacity="0.86"/>

  <rect x="86" y="110" width="260" height="18" rx="9" fill="#DBE5FA"/>
  <rect x="86" y="144" width="200" height="12" rx="6" fill="#DBE5FA"/>

  <rect x="86" y="190" width="260" height="74" rx="16" fill="#F9FAFB"/>
  <circle cx="116" cy="227" r="14" fill="#54BD95" opacity="0.9"/>
  <rect x="142" y="212" width="176" height="10" rx="5" fill="#DBE5FA"/>
  <rect x="142" y="232" width="132" height="8" rx="4" fill="#DBE5FA"/>

  <rect x="86" y="278" width="260" height="74" rx="16" fill="#F9FAFB"/>
  <circle cx="116" cy="315" r="14" fill="#0F8CE9" opacity="0.9"/>
  <rect x="142" y="300" width="176" height="10" rx="5" fill="#DBE5FA"/>
  <rect x="142" y="320" width="148" height="8" rx="4" fill="#DBE5FA"/>

  <rect x="86" y="366" width="260" height="74" rx="16" fill="#F9FAFB"/>
  <circle cx="116" cy="403" r="14" fill="#FBC75E" opacity="0.95"/>
  <rect x="142" y="388" width="176" height="10" rx="5" fill="#DBE5FA"/>
  <rect x="142" y="408" width="120" height="8" rx="4" fill="#DBE5FA"/>

  <rect x="450" y="150" width="280" height="44" rx="14" fill="#F9FAFB"/>
  <rect x="450" y="210" width="280" height="44" rx="14" fill="#F9FAFB"/>
  <rect x="450" y="270" width="280" height="44" rx="14" fill="#F9FAFB"/>
  <rect x="450" y="350" width="160" height="52" rx="18" fill="#54BD95"/>

  <text x="450" y="110" font-family="Inter, Arial" font-size="22" font-weight="700" fill="#191A15">Halı Defterim</text>
  <text x="450" y="136" font-family="Inter, Arial" font-size="14" font-weight="600" fill="#7A7A7A">Sipariş • Rota • Tahsilat</text>
</svg>
