<svg xmlns="http://www.w3.org/2000/svg" viewBox="0 0 900 1060" fill="none" role="img" aria-label="Placeholder photo">
  <defs>
    <linearGradient id="bg" x1="0" y1="0" x2="1" y2="1">
      <stop offset="0" stop-color="#EAF7F2"/>
      <stop offset="1" stop-color="#F9F8FE"/>
    </linearGradient>
  </defs>
  <rect x="0" y="0" width="900" height="1060" rx="40" fill="url(#bg)"/>
  <circle cx="710" cy="240" r="220" fill="#54BD95" opacity="0.12"/>
  <circle cx="250" cy="780" r="260" fill="#4535AF" opacity="0.08"/>

  <rect x="90" y="140" width="720" height="120" rx="24" fill="#ffffff" opacity="0.9"/>
  <rect x="130" y="178" width="380" height="18" rx="9" fill="#DBE5FA"/>
  <rect x="130" y="212" width="520" height="12" rx="6" fill="#DBE5FA"/>

  <rect x="90" y="300" width="720" height="560" rx="28" fill="#ffffff" opacity="0.86"/>
  <rect x="140" y="360" width="620" height="20" rx="10" fill="#DBE5FA"/>
  <rect x="140" y="404" width="540" height="14" rx="7" fill="#DBE5FA"/>

  <rect x="140" y="472" width="620" height="90" rx="18" fill="#F9FAFB"/>
  <rect x="140" y="582" width="620" height="90" rx="18" fill="#F9FAFB"/>
  <rect x="140" y="692" width="620" height="90" rx="18" fill="#F9FAFB"/>

  <circle cx="178" cy="517" r="18" fill="#54BD95" opacity="0.85"/>
  <circle cx="178" cy="627" r="18" fill="#0F8CE9" opacity="0.85"/>
  <circle cx="178" cy="737" r="18" fill="#FBC75E" opacity="0.92"/>

  <text x="90" y="950" font-family="Inter, Arial" font-size="26" font-weight="800" fill="#191A15">Görseli daha sonra değiştirebilirsiniz</text>
  <text x="90" y="990" font-family="Inter, Arial" font-size="16" font-weight="600" fill="#7A7A7A">Bu alan geçici bir placeholder.</text>
</svg>
